<?xml version="1.0" encoding="UTF-8" standalone="no"?>
<svg
   xmlns:dc="http://purl.org/dc/elements/1.1/"
   xmlns:cc="http://creativecommons.org/ns#"
   xmlns:rdf="http://www.w3.org/1999/02/22-rdf-syntax-ns#"
   xmlns:svg="http://www.w3.org/2000/svg"
   xmlns="http://www.w3.org/2000/svg"
   xmlns:sodipodi="http://sodipodi.sourceforge.net/DTD/sodipodi-0.dtd"
   xmlns:inkscape="http://www.inkscape.org/namespaces/inkscape"
   version="1.1"
   id="svg2"
   xml:space="preserve"
   width="2560"
   height="909.62268"
   viewBox="0 0 2560 909.62268"
   sodipodi:docname="foundation logo.ai"><metadata
     id="metadata8"><rdf:RDF><cc:Work
         rdf:about=""><dc:format>image/svg+xml</dc:format><dc:type
           rdf:resource="http://purl.org/dc/dcmitype/StillImage" /></cc:Work></rdf:RDF></metadata><defs
     id="defs6"><clipPath
       clipPathUnits="userSpaceOnUse"
       id="clipPath18"><path
         d="M 0,682.217 H 1920 V 0 H 0 Z"
         id="path16" /></clipPath></defs><sodipodi:namedview
     pagecolor="#ffffff"
     bordercolor="#666666"
     borderopacity="1"
     objecttolerance="10"
     gridtolerance="10"
     guidetolerance="10"
     inkscape:pageopacity="0"
     inkscape:pageshadow="2"
     inkscape:window-width="640"
     inkscape:window-height="480"
     id="namedview4" /><g
     id="g10"
     inkscape:groupmode="layer"
     inkscape:label="foundation logo"
     transform="matrix(1.3333333,0,0,-1.3333333,0,909.62267)"><g
       id="g12"><g
         id="g14"
         clip-path="url(#clipPath18)"><g
           id="g20"
           transform="translate(240.4263,386.2564)"><path
             d="m 0,0 c 0,-13.859 -2.266,-26.368 -6.785,-37.534 -4.526,-11.172 -10.961,-20.639 -19.298,-28.414 -8.341,-7.779 -18.446,-13.781 -30.322,-18.018 -11.873,-4.247 -25.165,-6.366 -39.862,-6.366 -23.472,0 -44.391,3.75 -62.765,11.239 -18.384,7.49 -33.505,16.041 -45.378,25.654 l 35.198,35.203 c 9.331,-8.479 19.788,-14.989 31.384,-19.511 7.062,-2.827 13.71,-4.661 19.932,-5.51 6.216,-0.849 11.305,-1.274 15.266,-1.274 7.35,0 14.062,0.917 20.145,2.76 6.076,1.834 11.377,4.305 15.903,7.422 9.608,7.06 14.419,16.388 14.419,27.989 0,7.065 -2.545,13.425 -7.634,19.08 -3.962,4.517 -9.051,8.199 -15.266,11.027 -5.089,2.823 -10.464,5.091 -16.115,6.785 -5.661,1.698 -10.75,3.248 -15.269,4.666 -1.416,0.56 -2.69,0.917 -3.817,1.062 -1.132,0.135 -2.118,0.492 -2.967,1.062 -0.57,0 -1.419,0.275 -2.544,0.844 -5.938,1.694 -14.494,4.667 -25.658,8.903 -11.171,4.247 -22.265,10.038 -33.292,17.392 -25.728,17.24 -38.591,38.444 -38.591,63.612 0,16.678 2.896,30.747 8.693,42.196 5.791,11.451 13.36,20.781 22.691,27.991 9.328,7.209 19.718,12.363 31.169,15.478 11.451,3.108 22.688,4.664 33.714,4.664 20.357,0 37.46,-2.405 51.317,-7.209 13.847,-4.809 24.873,-9.613 33.077,-14.42 4.241,-2.543 7.846,-5.021 10.814,-7.419 2.968,-2.405 5.579,-4.599 7.847,-6.575 l -36.048,-36.47 c -7.634,7.632 -15.413,13.425 -23.325,17.387 -11.876,5.653 -24.319,8.481 -37.319,8.481 -5.661,0 -11.312,-0.709 -16.965,-2.121 -5.658,-1.416 -10.602,-3.252 -14.844,-5.511 -12.442,-7.634 -18.658,-17.673 -18.658,-30.112 0,-7.632 2.543,-14.139 7.634,-19.508 3.67,-4.239 8.759,-8.056 15.266,-11.448 5.369,-2.831 11.027,-5.089 16.965,-6.788 5.935,-1.696 11.449,-3.252 16.538,-4.664 l 5.088,-1.271 c 1.412,-0.569 4.097,-1.419 8.059,-2.546 3.957,-1.131 8.621,-2.828 13.995,-5.088 5.368,-2.266 11.238,-4.949 17.599,-8.057 6.362,-3.112 12.65,-6.79 18.873,-11.026 C -13.717,45.94 0,24.596 0,0"
             style="fill:#f98b3c;fill-opacity:1;fill-rule:nonzero;stroke:none"
             id="path22" /></g><g
           id="g24"
           transform="translate(481.7388,451.1563)"><path
             d="m 0,0 c -5.386,13.54 -12.897,25.448 -22.483,35.628 -9.637,10.179 -21.002,18.135 -34.146,23.916 -13.144,5.832 -27.475,8.698 -43.04,8.698 -13.836,0 -26.141,-2.125 -36.913,-6.325 -10.723,-4.25 -20.211,-9.636 -28.414,-16.11 v 16.95 h -50.897 v -257.303 h 12.798 13.046 25.053 v 150.863 c 0,16.949 5.93,31.379 17.839,43.238 11.86,11.86 26.289,17.839 43.238,17.839 16.406,0 30.835,-5.979 43.287,-17.839 11.86,-11.859 17.79,-26.289 17.79,-43.238 0,-16.702 -5.93,-30.983 -17.79,-42.842 -5.979,-5.931 -12.6,-10.377 -19.963,-13.343 -7.363,-3.014 -15.121,-4.496 -23.324,-4.496 -8.45,0 -16.109,1.433 -22.879,4.249 l -18.234,-45.362 c 12.996,-6.474 28.117,-9.735 45.363,-9.735 15.565,0 29.896,2.866 43.04,8.648 13.144,5.83 24.509,13.786 34.146,23.966 9.586,10.179 17.097,22.088 22.483,35.628 5.337,13.589 8.055,28.018 8.055,43.287 C 8.055,-28.167 5.337,-13.589 0,0"
             style="fill:#f98b3c;fill-opacity:1;fill-rule:nonzero;stroke:none"
             id="path26" /></g><g
           id="g28"
           transform="translate(831.8042,513.4801)"><path
             d="m 0,0 c 10.032,4.242 21.416,6.363 34.139,6.363 v -50.892 c -16.962,0 -31.381,-5.938 -43.257,-17.809 -11.874,-12.445 -17.812,-26.864 -17.812,-43.257 V -212.04 h -50.889 v 106.445 106.02 h 50.889 v -16.54 C -19.018,-9.613 -10.038,-4.239 0,0"
             style="fill:#f98b3c;fill-opacity:1;fill-rule:nonzero;stroke:none"
             id="path30" /></g><g
           id="g32"
           transform="translate(1001.2207,301.4405)"><path
             d="m 0,0 h -46.649 c -9.616,0 -18.659,1.834 -27.143,5.511 -8.48,3.667 -15.835,8.696 -22.05,15.056 -6.223,6.36 -11.174,13.782 -14.844,22.266 -3.677,8.479 -5.513,17.526 -5.513,27.139 v 184.9 l 50.891,12.723 v -80.999 h 29.685 l 12.724,-50.888 H -65.308 V 69.972 c 0,-5.376 1.834,-9.902 5.514,-13.57 3.669,-3.677 8.056,-5.51 13.145,-5.51 h 33.926 z"
             style="fill:#f98b3c;fill-opacity:1;fill-rule:nonzero;stroke:none"
             id="path34" /></g><g
           id="g36"
           transform="translate(1100.8711,432.9015)"><path
             d="m 0,0 c 3.397,-0.845 9.048,-2.828 16.967,-5.936 7.914,-3.112 16.041,-7.421 24.384,-12.933 8.334,-5.51 15.621,-12.373 21.84,-20.567 6.216,-8.203 9.329,-17.96 9.329,-29.262 0,-9.903 -1.631,-18.946 -4.874,-27.14 -3.252,-8.204 -7.992,-15.413 -14.207,-21.628 -6.225,-6.225 -13.859,-11.032 -22.903,-14.42 -9.053,-3.397 -19.224,-5.091 -30.536,-5.091 -17.247,0 -33.287,3.113 -48.131,9.329 -14.844,6.215 -26.793,13.849 -35.836,22.902 l 35.198,35.198 c 7.35,-8.763 15.197,-14.419 23.54,-16.962 8.334,-2.543 15.332,-3.817 20.992,-3.817 8.758,0 15.268,1.699 19.506,5.086 4.246,3.398 6.36,7.49 6.36,12.301 0,3.392 -1.414,6.365 -4.237,8.903 -2.829,2.548 -6.149,4.671 -9.97,6.365 -3.813,1.694 -7.702,3.036 -11.659,4.03 -3.962,0.984 -7.209,1.906 -9.757,2.755 -3.388,1.125 -9.116,3.108 -17.17,5.941 -8.06,2.818 -16.263,6.92 -24.602,12.296 -8.338,5.365 -15.625,12.15 -21.84,20.354 -6.221,8.199 -9.329,18.091 -9.329,29.688 0,11.871 2.051,22.118 6.153,30.746 4.093,8.619 9.536,15.756 16.321,21.417 6.789,5.651 14.564,9.82 23.327,12.51 8.763,2.683 17.812,4.027 27.14,4.027 14.419,0 26.646,-1.696 36.684,-5.089 C 32.728,77.611 40.994,73.934 47.504,69.977 54.849,65.168 61.073,59.799 66.159,53.861 L 30.536,18.241 c -5.655,7.344 -11.871,12.72 -18.655,16.113 -6.785,3.392 -13.995,5.088 -21.629,5.088 -5.94,0 -11.814,-1.416 -17.604,-4.239 -5.795,-2.83 -8.691,-7.359 -8.691,-13.575 0,-3.387 1.27,-6.292 3.817,-8.69 2.543,-2.409 5.651,-4.387 9.329,-5.936 3.671,-1.559 7.561,-2.9 11.663,-4.029 C -7.143,1.838 -3.388,0.849 0,0"
             style="fill:#f98b3c;fill-opacity:1;fill-rule:nonzero;stroke:none"
             id="path38" /></g><g
           id="g40"
           transform="translate(1249.7236,547.4069)"><path
             d="m 0,0 v -72.093 h 110.69 l 12.721,-50.891 H 0 v -72.091 h 148.856 v -50.891 H -50.887 V 50.892 H 148.856 V 0 Z"
             style="fill:#5e625f;fill-opacity:1;fill-rule:nonzero;stroke:none"
             id="path42" /></g><g
           id="g44"
           transform="translate(1630.1348,598.7233)"><path
             d="m 0,0 v -297.283 h -50.892 v 106.02 c 0,17.242 -5.935,31.657 -17.811,43.257 -11.871,11.872 -26.15,17.812 -42.832,17.812 -16.962,0 -31.382,-5.94 -43.257,-17.812 -11.872,-11.875 -17.812,-26.295 -17.812,-43.257 0,-16.687 5.94,-30.961 17.812,-42.832 5.655,-5.936 12.228,-10.395 19.722,-13.358 7.49,-2.972 15.331,-4.454 23.535,-4.454 8.198,0 15.693,1.414 22.477,4.242 l 18.237,-45.381 c -13.01,-6.495 -27.989,-9.752 -44.951,-9.752 -15.553,0 -29.9,2.9 -43.045,8.691 -13.15,5.791 -24.534,13.787 -34.142,23.964 -9.612,10.177 -17.106,22.053 -22.478,35.623 -5.371,13.57 -8.053,27.989 -8.053,43.257 0,15.549 2.682,30.112 8.053,43.682 5.372,13.57 12.866,25.443 22.478,35.621 9.608,10.179 20.992,18.164 34.142,23.961 13.145,5.791 27.492,8.694 43.045,8.694 13.57,0 25.72,-2.121 36.467,-6.361 10.742,-4.241 20.21,-9.614 28.413,-16.115 l 0,101.781 z"
             style="fill:#5e625f;fill-opacity:1;fill-rule:nonzero;stroke:none"
             id="path46" /></g><g
           id="g48"
           transform="translate(689.4434,407.4674)"><path
             d="m 0,0 c 0,-39.644 -32.138,-71.781 -71.781,-71.781 -39.644,0 -71.782,32.137 -71.782,71.781 0,39.644 32.138,71.782 71.782,71.782 C -32.138,71.782 0,39.644 0,0"
             style="fill:#ffffff;fill-opacity:1;fill-rule:nonzero;stroke:none"
             id="path50" /></g><g
           id="g52"
           transform="translate(677.9355,402.1676)"><path
             d="m 0,0 -83.983,-48.486 c -1.011,-0.584 -2.139,-0.875 -3.267,-0.875 -1.128,0 -2.257,0.291 -3.267,0.875 -2.022,1.168 -3.267,3.324 -3.267,5.658 v 96.974 c 0,2.333 1.245,4.491 3.267,5.658 2.021,1.167 4.512,1.167 6.534,0 L 0,11.317 C 2.022,10.149 3.267,7.993 3.267,5.658 3.267,3.324 2.022,1.167 0,0 m 19.596,84.51 c -21.062,21.062 -49.066,32.661 -78.851,32.661 -29.787,0 -57.79,-11.599 -78.852,-32.661 -21.061,-21.062 -32.661,-49.065 -32.661,-78.852 0,-29.786 11.6,-57.789 32.661,-78.851 21.062,-21.062 49.065,-32.661 78.852,-32.661 29.785,0 57.789,11.599 78.851,32.661 21.062,21.062 32.661,49.065 32.661,78.851 0,29.787 -11.599,57.79 -32.661,78.852"
             style="fill:#f98b3c;fill-opacity:1;fill-rule:nonzero;stroke:none"
             id="path54" /></g><g
           id="g56"
           transform="translate(1684.0576,494.5841)"><path
             d="m 0,0 -0.272,131.3 -27.746,-0.049 -0.06,34.399 101.932,0.179 0.06,-34.399 -27.633,-0.049 0.273,-131.3 z"
             style="fill:#f98b3c;fill-opacity:1;fill-rule:nonzero;stroke:none"
             id="path58" /></g><g
           id="g60"
           transform="translate(1810.208,494.7838)"><path
             d="M 0,0 -32.32,165.644 6.777,165.712 24.654,52.163 40.602,165.771 82.682,165.844 50.451,0.088 Z"
             style="fill:#f98b3c;fill-opacity:1;fill-rule:nonzero;stroke:none"
             id="path62" /></g><g
           id="g64"
           transform="translate(149.9038,173.6876)"><path
             d="m 0,0 h -60.015 v -31.875 h 54.559 v -42.211 h -54.559 v -75.235 h -49.678 V 42.212 L 0,42.212 Z"
             style="fill:#5e625f;fill-opacity:1;fill-rule:nonzero;stroke:none"
             id="path66" /></g><g
           id="g68"
           transform="translate(237.7725,156.7457)"><path
             d="m 0,0 c -10.338,-10.051 -15.219,-24.121 -15.219,-37.618 0,-16.942 8.04,-28.715 15.219,-35.607 9.189,-8.902 22.111,-15.219 38.766,-15.219 16.942,0 29.577,6.03 38.479,14.932 8.901,8.902 15.506,22.111 15.506,36.756 C 92.751,-21.824 86.146,-8.615 77.245,0 66.62,10.05 51.975,15.219 38.766,15.219 24.982,15.219 10.337,10.337 0,0 m 114.288,-108.258 c -19.527,-18.665 -47.094,-28.429 -75.522,-28.429 -28.429,0 -55.995,9.764 -75.522,28.429 -20.388,19.527 -30.151,46.232 -30.151,71.502 0,25.557 9.763,52.549 30.151,71.789 19.527,18.665 47.093,28.428 75.522,28.428 28.428,0 55.995,-9.763 75.522,-28.428 20.388,-19.24 30.151,-46.232 30.151,-71.789 0,-25.27 -9.763,-51.975 -30.151,-71.502"
             style="fill:#5e625f;fill-opacity:1;fill-rule:nonzero;stroke:none"
             id="path70" /></g><g
           id="g72"
           transform="translate(463.4795,215.8995)"><path
             d="m 0,0 v -113.426 c 0,-8.041 0.287,-20.389 9.763,-29.577 5.743,-5.456 14.932,-9.19 23.547,-9.19 8.614,0 17.516,3.446 22.972,8.328 11.487,10.05 11.199,24.121 11.199,34.745 V 0 h 49.678 v -109.981 c 0,-20.101 -0.861,-41.062 -21.536,-62.025 -16.081,-16.368 -36.182,-23.834 -63.175,-23.834 -30.151,0 -51.687,10.338 -63.461,22.972 -16.655,18.091 -18.665,42.499 -18.665,62.887 l 0,109.981 z"
             style="fill:#5e625f;fill-opacity:1;fill-rule:nonzero;stroke:none"
             id="path74" /></g><g
           id="g76"
           transform="translate(620.8428,24.3668)"><path
             d="M 0,0 V 191.533 H 49.678 L 141.28,74.373 v 117.16 h 49.678 V 0 H 141.28 L 49.678,117.159 V 0 Z"
             style="fill:#5e625f;fill-opacity:1;fill-rule:nonzero;stroke:none"
             id="path78" /></g><g
           id="g80"
           transform="translate(901.6831,66.5787)"><path
             d="m 0,0 h 10.05 c 12.061,0 29.003,1.148 41.925,13.783 6.317,6.03 14.645,18.091 14.645,39.341 0,17.803 -5.456,33.022 -14.932,41.924 -11.773,10.912 -27.28,12.061 -39.627,12.061 l -12.061,0 z m -49.678,-42.212 v 191.533 h 65.184 c 19.24,0 51.401,-2.585 76.096,-26.419 22.398,-21.537 26.706,-49.103 26.706,-69.778 0,-25.27 -6.317,-47.668 -24.982,-66.333 -15.22,-15.22 -40.777,-29.003 -73.513,-29.003 z"
             style="fill:#5e625f;fill-opacity:1;fill-rule:nonzero;stroke:none"
             id="path82" /></g><g
           id="g84"
           transform="translate(1144.6211,94.4322)"><path
             d="M 0,0 -21.536,62.026 -42.499,0 Z m 13.209,-37.904 h -69.491 l -12.922,-32.161 h -52.55 l 73.512,191.532 H 6.03 L 78.106,-70.065 H 24.982 Z"
             style="fill:#5e625f;fill-opacity:1;fill-rule:nonzero;stroke:none"
             id="path86" /></g><g
           id="g88"
           transform="translate(1308.5889,173.6876)"><path
             d="M 0,0 V -149.321 H -49.678 V 0 H -90.454 V 42.212 H 40.776 L 40.776,0 Z"
             style="fill:#5e625f;fill-opacity:1;fill-rule:nonzero;stroke:none"
             id="path90" /></g><path
           d="m 1421.154,24.367 h -49.678 V 215.9 h 49.678 z"
           style="fill:#5e625f;fill-opacity:1;fill-rule:nonzero;stroke:none"
           id="path92" /><g
           id="g94"
           transform="translate(1519.6475,156.7457)"><path
             d="m 0,0 c -10.338,-10.051 -15.22,-24.121 -15.22,-37.618 0,-16.942 8.041,-28.715 15.22,-35.607 9.188,-8.902 22.11,-15.219 38.766,-15.219 16.942,0 29.577,6.03 38.478,14.932 8.902,8.902 15.507,22.111 15.507,36.756 C 92.751,-21.824 86.146,-8.615 77.244,0 66.62,10.05 51.975,15.219 38.766,15.219 24.982,15.219 10.337,10.337 0,0 m 114.287,-108.258 c -19.526,-18.665 -47.093,-28.429 -75.521,-28.429 -28.429,0 -55.995,9.764 -75.522,28.429 -20.389,19.527 -30.151,46.232 -30.151,71.502 0,25.557 9.762,52.549 30.151,71.789 19.527,18.665 47.093,28.428 75.522,28.428 28.428,0 55.995,-9.763 75.521,-28.428 20.389,-19.24 30.151,-46.232 30.151,-71.789 0,-25.27 -9.762,-51.975 -30.151,-71.502"
             style="fill:#5e625f;fill-opacity:1;fill-rule:nonzero;stroke:none"
             id="path96" /></g><g
           id="g98"
           transform="translate(1695.6768,24.3668)"><path
             d="M 0,0 V 191.533 H 49.678 L 141.28,74.373 v 117.16 h 49.678 V 0 H 141.28 L 49.678,117.159 V 0 Z"
             style="fill:#5e625f;fill-opacity:1;fill-rule:nonzero;stroke:none"
             id="path100" /></g></g></g></g></svg>
